# Blender v2.76 (sub 0) OBJ File: 'cube_test.blend'
# www.blender.org
mtllib cube_test.mtl
o Cube
v 0.972808 0.013205 -1.067679
v 0.972808 0.013205 0.932321
v -1.027192 0.013205 0.932321
v -1.027191 0.013205 -1.067679
v 0.218620 2.238761 -0.313490
v 0.218620 2.238761 0.178133
v -0.273004 2.238761 0.178133
v -0.273003 2.238761 -0.313491
vt 0.333151 0.999818
vt 0.333151 0.666849
vt 0.000182 0.666849
vt 0.000182 0.999818
vt 0.415363 0.666849
vt 0.415363 0.748696
vt 0.333515 0.748696
vt 0.333515 0.666849
vt 0.371067 0.000182
vt 0.741588 0.125743
vt 0.741588 0.207591
vt 0.371067 0.333151
vt 0.370703 0.666485
vt 0.000182 0.540924
vt 0.000182 0.459076
vt 0.370703 0.333515
vt 0.370703 0.000182
vt 0.000182 0.125743
vt 0.000182 0.207590
vt 0.370703 0.333151
vt 0.741588 0.459076
vt 0.371067 0.333515
vt 0.371067 0.666485
vt 0.741588 0.540924
vn 0.000000 -1.000000 -0.000000
vn 0.000000 1.000000 -0.000000
vn 0.947100 0.320900 0.000000
vn -0.000000 0.320900 0.947100
vn -0.947100 0.320900 -0.000000
vn 0.000000 0.320900 -0.947100
usemtl Material
s off
f 1/1/1 2/2/1 3/3/1 4/4/1
f 5/5/2 8/6/2 7/7/2 6/8/2
f 1/9/3 5/10/3 6/11/3 2/12/3
f 2/13/4 6/14/4 7/15/4 3/16/4
f 3/17/5 7/18/5 8/19/5 4/20/5
f 5/21/6 1/22/6 4/23/6 8/24/6
