# Blender v2.77 (sub 0) OBJ File: 'apple.blend'
# www.blender.org
mtllib apple.mtl
o Cone
v 0.116350 0.914954 -0.359902
v 0.304898 0.914954 -0.281802
v 0.382998 0.914954 -0.093254
v 0.304898 0.914954 0.095294
v 0.116350 0.914954 0.173393
v -0.072198 0.914954 0.095294
v -0.150297 0.914954 -0.093254
v -0.072198 0.914954 -0.281802
v 0.156464 0.812216 -0.076647
v 0.116350 0.206643 -0.686858
v 0.536091 0.206643 -0.512995
v 0.709954 0.206643 -0.093254
v 0.536091 0.206643 0.326487
v 0.116350 0.206643 0.500350
v -0.303391 0.206643 0.326487
v -0.477254 0.206643 -0.093254
v -0.303391 0.206643 -0.512995
v 0.116350 0.843739 -0.663928
v -0.287177 0.843739 -0.496781
v -0.454324 0.843739 -0.093254
v -0.287177 0.843739 0.310273
v 0.519877 0.843739 -0.496781
v 0.116350 0.843739 0.477420
v 0.519877 0.843739 0.310273
v 0.687024 0.843739 -0.093254
v -0.175949 0.951545 -0.385554
v -0.297024 0.951545 -0.093254
v -0.175949 0.951545 0.199045
v 0.116350 0.951545 0.320120
v 0.408649 0.951545 0.199045
v 0.529724 0.951545 -0.093254
v 0.116350 0.951545 -0.506628
v 0.408649 0.951545 -0.385554
v 0.116350 0.682513 -0.742471
v 0.575416 0.682513 -0.552320
v -0.342716 0.682513 -0.552320
v -0.532867 0.682513 -0.093254
v -0.342716 0.682513 0.365811
v 0.116350 0.682513 0.555963
v 0.575416 0.682513 0.365812
v 0.765567 0.682513 -0.093254
v 0.116350 0.432317 -0.772960
v 0.596975 0.432317 -0.573879
v -0.364275 0.432317 -0.573879
v -0.563356 0.432317 -0.093254
v -0.364275 0.432317 0.387371
v 0.116350 0.432317 0.586452
v 0.596975 0.432317 0.387371
v 0.796056 0.432317 -0.093254
v 0.116350 0.053211 -0.525287
v 0.421843 0.053211 -0.398747
v 0.548383 0.053211 -0.093254
v 0.421843 0.053211 0.212239
v 0.116350 0.053211 0.338778
v -0.189143 0.053211 0.212239
v -0.315683 0.053211 -0.093254
v -0.189143 0.053211 -0.398747
v 0.116350 -0.009157 -0.093254
v 0.158502 0.775332 -0.087510
v 0.242935 1.179862 -0.134673
v 0.165449 0.775332 -0.075477
v 0.272404 1.175568 -0.083092
v 0.151554 0.775332 -0.075477
v 0.213466 1.184157 -0.083092
vt 0.3077 0.5155
vt 0.2812 0.6837
vt 0.2271 0.5144
vt 0.1055 0.5690
vt 0.3734 0.8437
vt 0.4322 0.7464
vt 0.4405 0.6694
vt 0.4273 0.6126
vt 0.4010 0.5696
vt 0.3624 0.5370
vt 0.4512 0.4365
vt 0.3956 0.3729
vt 0.4333 0.3441
vt 0.4804 0.4123
vt 0.4795 0.3223
vt 0.5155 0.3895
vt 0.4978 0.4911
vt 0.5246 0.4679
vt 0.5433 0.5470
vt 0.5720 0.5214
vt 0.3157 0.2798
vt 0.3772 0.2412
vt 0.5956 0.6150
vt 0.6316 0.5815
vt 0.6690 0.7172
vt 0.7245 0.6627
vt 0.8144 0.9415
vt 0.9393 0.8108
vt 0.1577 0.0762
vt 0.3100 0.0217
vt 0.2259 0.4508
vt 0.0426 0.4701
vt 0.0172 0.3317
vt 0.2418 0.3861
vt 0.4349 0.9104
vt 0.4881 0.7623
vt 0.5494 0.7640
vt 0.5352 0.9705
vt 0.4823 0.6666
vt 0.5232 0.6561
vt 0.4593 0.6006
vt 0.4897 0.5852
vt 0.3222 0.4750
vt 0.3429 0.4369
vt 0.4267 0.5504
vt 0.4517 0.5308
vt 0.3833 0.5094
vt 0.4056 0.4834
vt 0.0463 0.2123
vt 0.2664 0.3364
vt 0.6025 0.7523
vt 0.6467 0.9863
vt 0.5558 0.6416
vt 0.5135 0.5700
vt 0.3632 0.4077
vt 0.4716 0.5140
vt 0.4245 0.4627
vt 0.6658 0.5393
vt 0.6029 0.4913
vt 0.7702 0.2623
vt 0.5556 0.4430
vt 0.7654 0.5896
vt 0.4554 0.0416
vt 0.4498 0.2232
vt 0.9844 0.6331
vt 0.0715 0.6705
vt 0.0838 0.9761
vt 0.0400 0.9749
vt 0.0613 0.6709
vt 0.0917 0.6680
vt 0.1704 0.9625
vt 0.1270 0.9688
vt 0.0815 0.6680
vt 0.0696 0.6139
vt 0.0933 0.6507
vt 0.0495 0.6528
vn 0.0031 0.9601 0.2795
vn -0.0565 0.9981 -0.0233
vn -0.2056 0.9556 0.2112
vn -0.3083 0.9513 0.0019
vn -0.2166 0.9513 -0.2194
vn 0.0039 0.9556 -0.2947
vn 0.1999 0.9601 -0.1954
vn 0.2708 0.9626 0.0011
vn 0.1923 0.9626 0.1907
vn -0.7024 -0.1148 -0.7024
vn 0.0000 -0.1148 -0.9934
vn 0.0000 -0.5308 -0.8474
vn -0.5992 -0.5308 -0.5992
vn 0.0000 -0.8698 -0.4933
vn -0.3488 -0.8698 -0.3488
vn -0.9934 -0.1148 0.0000
vn -0.8474 -0.5308 0.0000
vn -0.7024 -0.1148 0.7024
vn -0.5992 -0.5308 0.5992
vn 0.7024 -0.1148 -0.7024
vn 0.5992 -0.5308 -0.5992
vn 0.0000 -0.1148 0.9934
vn 0.0000 -0.5308 0.8474
vn 0.7024 -0.1148 0.7024
vn 0.5992 -0.5308 0.5992
vn 0.9934 -0.1148 0.0000
vn 0.8474 -0.5308 0.0000
vn 0.1924 0.9622 -0.1924
vn 0.2721 0.9622 0.0000
vn 0.7817 0.6236 0.0000
vn 0.5528 0.6236 -0.5528
vn 0.1924 0.9622 0.1924
vn 0.5528 0.6236 0.5528
vn 0.0000 0.9622 0.2721
vn 0.0000 0.6236 0.7817
vn -0.1924 0.9622 0.1924
vn -0.5528 0.6236 0.5528
vn 0.0000 0.9622 -0.2721
vn 0.0000 0.6236 -0.7817
vn -0.2721 0.9622 0.0000
vn -0.7817 0.6236 0.0000
vn -0.1924 0.9622 -0.1924
vn -0.5528 0.6236 -0.5528
vn 0.9620 0.2730 0.0000
vn 0.6802 0.2730 -0.6802
vn 0.6802 0.2730 0.6802
vn 0.0000 0.2730 0.9620
vn -0.6802 0.2730 0.6802
vn 0.0000 0.2730 -0.9620
vn -0.9620 0.2730 0.0000
vn -0.6802 0.2730 -0.6802
vn 0.0000 -0.8698 0.4933
vn -0.3488 -0.8698 0.3488
vn 0.0000 -1.0000 0.0000
vn -0.4933 -0.8698 0.0000
vn 0.3488 -0.8698 0.3488
vn 0.4933 -0.8698 0.0000
vn 0.3488 -0.8698 -0.3488
vn -0.1238 -0.0898 -0.9882
vn 0.1008 0.5042 -0.8577
vn 0.8220 0.4054 0.3999
vn 0.8000 -0.2028 0.5647
vn -0.6325 0.6576 0.4093
vn -0.8719 0.1409 0.4690
usemtl None
s 1
f 1/1/1 9/2/2 2/3/3
f 2/3/3 9/2/2 3/4/4
f 3/5/4 9/2/2 4/6/5
f 4/6/5 9/2/2 5/7/6
f 5/7/6 9/2/2 6/8/7
f 6/8/7 9/2/2 7/9/8
f 7/9/8 9/2/2 8/10/9
f 8/10/9 9/2/2 1/1/1
f 44/11/10 42/12/11 10/13/12 17/14/13
f 17/14/13 10/13/12 50/15/14 57/16/15
f 45/17/16 44/11/10 17/14/13 16/18/17
f 46/19/18 45/17/16 16/18/17 15/20/19
f 42/12/11 43/21/20 11/22/21 10/13/12
f 47/23/22 46/19/18 15/20/19 14/24/23
f 48/25/24 47/23/22 14/24/23 13/26/25
f 49/27/26 48/25/24 13/26/25 12/28/27
f 43/21/20 49/29/26 12/30/27 11/22/21
f 33/31/28 31/32/29 25/33/30 22/34/31
f 31/35/29 30/36/32 24/37/33 25/38/30
f 30/36/32 29/39/34 23/40/35 24/37/33
f 29/39/34 28/41/36 21/42/37 23/40/35
f 32/43/38 33/31/28 22/34/31 18/44/39
f 28/41/36 27/45/40 20/46/41 21/42/37
f 27/45/40 26/47/42 19/48/43 20/46/41
f 26/47/42 32/43/38 18/44/39 19/48/43
f 8/10/9 1/1/1 32/43/38 26/47/42
f 7/9/8 8/10/9 26/47/42 27/45/40
f 6/8/7 7/9/8 27/45/40 28/41/36
f 1/1/1 2/3/3 33/31/28 32/43/38
f 5/7/6 6/8/7 28/41/36 29/39/34
f 4/6/5 5/7/6 29/39/34 30/36/32
f 3/5/4 4/6/5 30/36/32 31/35/29
f 2/3/3 3/4/4 31/32/29 33/31/28
f 22/34/31 25/33/30 41/49/44 35/50/45
f 25/38/30 24/37/33 40/51/46 41/52/44
f 24/37/33 23/40/35 39/53/47 40/51/46
f 23/40/35 21/42/37 38/54/48 39/53/47
f 18/44/39 22/34/31 35/50/45 34/55/49
f 21/42/37 20/46/41 37/56/50 38/54/48
f 20/46/41 19/48/43 36/57/51 37/56/50
f 19/48/43 18/44/39 34/55/49 36/57/51
f 35/50/45 41/49/44 49/29/26 43/21/20
f 41/52/44 40/51/46 48/25/24 49/27/26
f 40/51/46 39/53/47 47/23/22 48/25/24
f 39/53/47 38/54/48 46/19/18 47/23/22
f 34/55/49 35/50/45 43/21/20 42/12/11
f 38/54/48 37/56/50 45/17/16 46/19/18
f 37/56/50 36/57/51 44/11/10 45/17/16
f 36/57/51 34/55/49 42/12/11 44/11/10
f 54/58/52 55/59/53 58/60/54
f 15/20/19 16/18/17 56/61/55 55/59/53
f 13/26/25 14/24/23 54/58/52 53/62/56
f 11/22/21 12/30/27 52/63/57 51/64/58
f 16/18/17 17/14/13 57/16/15 56/61/55
f 14/24/23 15/20/19 55/59/53 54/58/52
f 12/28/27 13/26/25 53/62/56 52/65/57
f 10/13/12 11/22/21 51/64/58 50/15/14
f 52/65/57 53/62/56 58/60/54
f 50/15/14 51/64/58 58/60/54
f 57/16/15 50/15/14 58/60/54
f 55/59/53 56/61/55 58/60/54
f 53/62/56 54/58/52 58/60/54
f 51/64/58 52/63/57 58/60/54
f 56/61/55 57/16/15 58/60/54
f 59/66/59 60/67/60 62/68/61 61/69/62
f 61/70/62 62/71/61 64/72/63 63/73/64
f 62/74/61 60/75/60 64/76/63
f 63/73/64 64/72/63 60/67/60 59/66/59
