# Blender v2.77 (sub 0) OBJ File: ''
# www.blender.org
mtllib board.mtl
o Cube
v -0.806957 0.039946 3.023542
v -0.806957 0.371211 3.023542
v -0.820450 0.050510 -2.961238
v -0.820450 0.381775 -2.961238
v 0.737263 0.039946 3.023542
v 0.737263 0.371211 3.023542
v 0.723769 0.050510 -2.961238
v 0.723769 0.381775 -2.961238
vt 0.0515 0.0001
vt 0.9517 0.0021
vt 0.9515 0.0519
vt 0.0513 0.0499
vt 0.9501 0.7034
vt 0.9501 0.4026
vt 0.9999 0.4026
vt 0.9999 0.7034
vt 0.0499 0.4006
vt 0.0499 0.3507
vt 0.9501 0.3528
vt 0.0499 0.7014
vt 0.0001 0.7014
vt 0.0001 0.4006
vn -1.0000 0.0000 0.0023
vn 0.0000 0.0000 -1.0000
vn 1.0000 0.0000 -0.0023
vn 0.0000 0.0000 1.0000
vn 0.0000 -1.0000 -0.0018
vn 0.0000 1.0000 0.0018
usemtl None
s off
f 2/1/1 4/2/1 3/3/1 1/4/1
f 4/5/2 8/6/2 7/7/2 3/8/2
f 8/6/3 6/9/3 5/10/3 7/11/3
f 6/9/4 2/12/4 1/13/4 5/14/4
f 1/4/5 3/3/5 7/11/5 5/10/5
f 6/9/6 8/6/6 4/5/6 2/12/6
