# Blender v2.77 (sub 0) OBJ File: 'pine_tree_1.blend'
# www.blender.org
mtllib pine_tree_1.mtl
o Cylinder
v 0.031630 -0.001412 -0.197194
v 0.041498 0.563415 -0.144958
v 0.185802 -0.001412 -0.122948
v 0.154830 0.563415 -0.090380
v 0.223880 -0.001412 0.043880
v 0.182821 0.563415 0.032256
v 0.117189 -0.001412 0.177665
v 0.104393 0.563415 0.130603
v -0.053929 -0.001412 0.177665
v -0.021397 0.563415 0.130603
v -0.160620 -0.001412 0.043880
v -0.099826 0.563415 0.032256
v -0.122542 -0.001412 -0.122948
v -0.071835 0.563415 -0.090380
v 0.057400 1.465434 -0.081081
v -0.024650 1.465434 -0.120594
v 0.077664 1.465434 0.007703
v 0.020884 1.465434 0.078903
v -0.070184 1.465434 0.078903
v -0.126964 1.465434 0.007703
v -0.106699 1.465434 -0.081081
v 0.097410 2.218711 -0.087974
v 0.032882 2.218711 -0.119049
v 0.113347 2.218711 -0.018149
v 0.068692 2.218711 0.037847
v -0.002929 2.218711 0.037847
v -0.047584 2.218711 -0.018149
v -0.031646 2.218711 -0.087974
v 0.016086 3.006305 -0.048655
v -0.028155 3.006305 -0.069961
v 0.027013 3.006305 -0.000783
v -0.003603 3.006305 0.037608
v -0.052707 3.006305 0.037608
v -0.083322 3.006305 -0.000783
v -0.072396 3.006305 -0.048655
v -0.025457 3.952586 -0.026082
v -0.093247 1.364560 -0.084669
v -0.116515 1.365304 0.017157
v -0.268217 1.420217 -0.127317
v -0.281839 1.435814 -0.081640
v -0.259175 1.380769 -0.128723
v -0.273468 1.377333 -0.079078
v 0.063421 2.135651 0.042374
v -0.011613 2.121442 0.043148
v 0.012988 2.145936 0.255005
v 0.049340 2.145936 0.255005
v 0.008580 2.096566 0.257696
v 0.046664 2.103778 0.257303
v 0.022722 2.942045 -0.051864
v -0.023824 2.950421 -0.073444
v 0.051444 2.976206 -0.141079
v 0.023196 2.976206 -0.154682
v 0.055680 2.935176 -0.143127
v 0.025962 2.940524 -0.156906
v 0.078607 0.941576 0.203000
v 0.449641 0.807981 0.208271
v 0.073348 0.911450 -0.190345
v 0.444382 0.777856 -0.185075
v 0.105676 1.008824 0.002007
v 0.476710 0.875229 0.007278
vt 0.1083 0.0010
vt 0.1201 0.1472
vt 0.0879 0.1496
vt 0.0656 0.0009
vt 0.0563 0.1541
vt 0.0207 0.0010
vt 0.3297 0.0010
vt 0.2901 0.1575
vt 0.2563 0.1517
vt 0.2789 0.0010
vt 0.2215 0.1484
vt 0.2336 0.0007
vt 0.1862 0.1467
vt 0.1913 0.0009
vt 0.2009 0.3795
vt 0.1791 0.3790
vt 0.1815 0.3546
vt 0.1530 0.1465
vt 0.1497 0.0009
vt 0.4037 0.0348
vt 0.4469 0.0348
vt 0.4738 0.0686
vt 0.4642 0.1107
vt 0.4253 0.1295
vt 0.3863 0.1107
vt 0.3767 0.0686
vt 0.1949 0.5448
vt 0.1943 0.5701
vt 0.1756 0.5695
vt 0.1351 0.3796
vt 0.1121 0.3807
vt 0.2464 0.3848
vt 0.2237 0.3816
vt 0.1550 0.3544
vt 0.1574 0.3791
vt 0.0890 0.3824
vt 0.1033 0.5718
vt 0.1211 0.5705
vt 0.1337 0.7513
vt 0.1351 0.7675
vt 0.1228 0.7689
vt 0.2301 0.5728
vt 0.2126 0.5712
vt 0.2133 0.5503
vt 0.1389 0.5697
vt 0.1570 0.5694
vt 0.1628 1.0007
vt 0.1592 0.7671
vt 0.1473 0.7670
vt 0.1465 0.7532
vt 0.1831 0.7678
vt 0.1712 0.7674
vt 0.2073 0.7697
vt 0.1952 0.7684
vt 0.4241 0.2197
vt 0.4374 0.2425
vt 0.3918 0.2519
vt 0.3858 0.2403
vt 0.3774 0.2797
vt 0.3767 0.2666
vt 0.3916 0.2668
vt 0.3876 0.2788
vt 0.4374 0.2681
vt 0.4301 0.2899
vt 0.4075 0.2001
vt 0.3785 0.2331
vt 0.3796 0.1296
vt 0.3892 0.1315
vt 0.3899 0.1421
vt 0.3807 0.1421
vt 0.4316 0.1835
vt 0.4136 0.1905
vt 0.3995 0.1373
vt 0.4086 0.1338
vt 0.3948 0.2000
vt 0.4554 0.1768
vt 0.4206 0.1304
vt 0.3767 0.2000
vt 0.3921 0.2900
vt 0.3992 0.2945
vt 0.3961 0.3030
vt 0.3888 0.2999
vt 0.4154 0.3267
vt 0.4023 0.3268
vt 0.4051 0.3023
vt 0.4135 0.3022
vt 0.3881 0.3279
vt 0.3767 0.3231
vt 0.4317 0.3279
vt 0.4239 0.3030
vt 0.6797 0.8423
vt 0.9354 0.8423
vt 0.9354 0.9701
vt 0.6797 0.9701
vt 0.6797 0.7145
vt 0.9354 0.7145
vn 0.4326 0.0755 -0.8984
vn 0.9728 0.0661 -0.2220
vn 0.7799 0.0695 0.6220
vn 0.0000 0.0830 0.9965
vn -0.7782 0.0965 0.6206
vn -0.7867 -0.0069 0.6173
vn -0.9701 0.0999 -0.2214
vn -0.4321 0.0905 -0.8973
vn 0.0000 -1.0000 0.0000
vn -0.7777 0.1032 0.6202
vn 0.4332 0.0561 -0.8996
vn 0.7773 0.1075 0.6199
vn -0.9746 -0.0245 -0.2225
vn -0.0000 0.0572 0.9984
vn -0.4419 -0.0078 -0.8970
vn 0.9693 0.1070 -0.2212
vn 0.9689 0.1111 -0.2211
vn 0.7817 -0.0156 0.6234
vn 0.4337 -0.0313 -0.9005
vn -0.9705 0.0947 -0.2215
vn 0.0000 0.0544 0.9985
vn 0.9735 -0.0537 -0.2222
vn -0.4336 0.0350 -0.9004
vn 0.9738 0.0481 -0.2223
vn -0.4338 0.0225 -0.9007
vn -0.7809 -0.0492 0.6227
vn 0.7798 0.0718 0.6219
vn 0.4321 0.0894 -0.8974
vn -0.9742 -0.0393 -0.2223
vn 0.0000 0.0003 1.0000
vn -0.4335 0.0430 -0.9001
vn -0.7802 0.0643 0.6222
vn 0.7804 0.0599 0.6224
vn 0.4335 0.0405 -0.9002
vn -0.9735 0.0536 -0.2222
vn 0.0000 0.0672 0.9977
vn -0.0717 -0.9968 -0.0355
vn -0.9511 -0.1721 -0.2566
vn -0.1643 0.9743 -0.1544
vn 0.2588 0.0758 -0.9630
vn -0.5116 0.0044 0.8592
vn 0.1832 -0.9744 -0.1302
vn 0.9959 -0.0595 0.0688
vn -0.9901 0.0941 0.1041
vn 0.0000 0.9482 0.3178
vn -0.1810 -0.9834 0.0087
vn 0.1267 0.9564 -0.2630
vn -0.8601 -0.0349 -0.5089
vn 0.9394 0.0804 0.3332
vn 0.3048 0.8281 -0.4704
vn 0.3144 0.8867 0.3390
usemtl Material
s off
f 1/1/1 2/2/1 4/3/1 3/4/1
f 3/4/2 4/3/2 6/5/2 5/6/2
f 5/7/3 6/8/3 8/9/3 7/10/3
f 7/10/4 8/9/4 10/11/4 9/12/4
f 9/12/5 10/11/5 12/13/5 11/14/5
f 12/13/6 10/11/6 19/15/6 20/16/6 38/17/6
f 11/14/7 12/13/7 14/18/7 13/19/7
f 13/19/8 14/18/8 2/2/8 1/1/8
f 1/20/9 3/21/9 5/22/9 7/23/9 9/24/9 11/25/9 13/26/9
f 20/16/10 19/15/10 44/27/10 26/28/10 27/29/10
f 4/3/11 2/2/11 16/30/11 15/31/11
f 8/9/12 6/8/12 17/32/12 18/33/12
f 14/18/13 12/13/13 38/17/13 37/34/13
f 10/11/14 8/9/14 18/33/14 19/15/14
f 2/2/15 14/18/15 37/34/15 21/35/15 16/30/15
f 6/5/16 4/3/16 15/31/16 17/36/16
f 24/37/17 22/38/17 49/39/17 29/40/17 31/41/17
f 18/33/18 17/32/18 24/42/18 25/43/18 43/44/18
f 15/31/19 16/30/19 23/45/19 22/38/19
f 21/35/20 20/16/20 27/29/20 28/46/20
f 19/15/21 18/33/21 43/44/21 44/27/21
f 17/36/22 15/31/22 22/38/22 24/37/22
f 16/30/23 21/35/23 28/46/23 23/45/23
f 31/41/24 29/40/24 36/47/24
f 23/45/25 28/46/25 35/48/25 30/49/25 50/50/25
f 27/29/26 26/28/26 33/51/26 34/52/26
f 25/43/27 24/42/27 31/53/27 32/54/27
f 22/38/28 23/45/28 50/50/28 49/39/28
f 28/46/29 27/29/29 34/52/29 35/48/29
f 26/28/30 25/43/30 32/54/30 33/51/30
f 30/49/31 35/48/31 36/47/31
f 34/52/32 33/51/32 36/47/32
f 32/54/33 31/53/33 36/47/33
f 29/40/34 30/49/34 36/47/34
f 35/48/35 34/52/35 36/47/35
f 33/51/36 32/54/36 36/47/36
f 37/55/37 38/56/37 42/57/37 41/58/37
f 41/59/38 42/60/38 40/61/38 39/62/38
f 20/63/39 21/64/39 39/62/39 40/61/39
f 21/65/40 37/55/40 41/58/40 39/66/40
f 38/56/41 20/63/41 40/61/41 42/57/41
f 47/67/21 48/68/21 46/69/21 45/70/21
f 44/71/42 43/72/42 48/73/42 47/74/42
f 43/72/43 25/75/43 46/69/43 48/73/43
f 26/76/44 44/71/44 47/74/44 45/77/44
f 25/75/45 26/78/45 45/70/45 46/69/45
f 53/79/28 54/80/28 52/81/28 51/82/28
f 49/83/46 50/84/46 54/85/46 53/86/46
f 30/87/47 29/88/47 51/82/47 52/81/47
f 50/84/48 30/87/48 52/81/48 54/85/48
f 29/89/49 49/83/49 53/86/49 51/90/49
f 59/91/50 60/92/50 58/93/50 57/94/50
f 55/95/51 56/96/51 60/92/51 59/91/51
