# Blender v2.77 (sub 0) OBJ File: ''
# www.blender.org
mtllib some.mtl
o Cube.001_Cube.003
v -0.199630 2.843632 0.209368
v -0.199630 3.234790 0.209368
v -0.199630 2.843632 -0.181790
v -0.199630 3.234790 -0.181790
v 0.191528 2.843632 0.209368
v 0.191528 3.234790 0.209368
v 0.191528 2.843632 -0.181790
v 0.191528 3.234790 -0.181790
vn -1.0000 0.0000 0.0000
vn 0.0000 0.0000 -1.0000
vn 1.0000 0.0000 0.0000
vn 0.0000 0.0000 1.0000
vn 0.0000 -1.0000 0.0000
vn 0.0000 1.0000 0.0000
usemtl None
s off
f 2//1 4//1 3//1 1//1
f 4//2 8//2 7//2 3//2
f 8//3 6//3 5//3 7//3
f 6//4 2//4 1//4 5//4
f 1//5 3//5 7//5 5//5
f 6//6 8//6 4//6 2//6
o Cube.002
v 0.188444 0.041456 0.291346
v 0.188444 1.239669 0.291346
v 0.188444 0.041456 -0.263768
v 0.188444 1.239669 -0.263768
v 0.588524 0.041456 0.291346
v 0.588524 1.239669 0.291346
v 0.588524 0.041456 -0.263768
v 0.588524 1.239669 -0.263768
vn -1.0000 0.0000 0.0000
vn 0.0000 0.0000 -1.0000
vn 1.0000 0.0000 0.0000
vn 0.0000 0.0000 1.0000
vn 0.0000 -1.0000 0.0000
vn 0.0000 1.0000 0.0000
usemtl None
s off
f 10//7 12//7 11//7 9//7
f 12//8 16//8 15//8 11//8
f 16//9 14//9 13//9 15//9
f 14//10 10//10 9//10 13//10
f 9//11 11//11 15//11 13//11
f 14//12 16//12 12//12 10//12
o Cube
v -0.599610 0.037429 0.373772
v -0.599610 1.235642 0.373772
v -0.599610 0.037429 -0.181343
v -0.599610 1.235642 -0.181343
v -0.199530 0.037429 0.373772
v -0.199530 1.235642 0.373772
v -0.199530 0.037429 -0.181343
v -0.199530 1.235642 -0.181343
vn -1.0000 0.0000 0.0000
vn 0.0000 0.0000 -1.0000
vn 1.0000 0.0000 0.0000
vn 0.0000 0.0000 1.0000
vn 0.0000 -1.0000 0.0000
vn 0.0000 1.0000 0.0000
usemtl None
s off
f 18//13 20//13 19//13 17//13
f 20//14 24//14 23//14 19//14
f 24//15 22//15 21//15 23//15
f 22//16 18//16 17//16 21//16
f 17//17 19//17 23//17 21//17
f 22//18 24//18 20//18 18//18
o Cylinder
v -0.004051 1.129410 -0.465496
v -0.004051 2.575186 -0.465496
v 0.151573 1.129410 -0.439527
v 0.151573 2.575186 -0.439527
v 0.290332 1.129410 -0.364435
v 0.290332 2.575186 -0.364435
v 0.397191 1.129410 -0.248355
v 0.397191 2.575186 -0.248355
v 0.460568 1.129410 -0.103869
v 0.460568 2.575186 -0.103869
v 0.473597 1.129410 0.053368
v 0.473597 2.575186 0.053368
v 0.434866 1.129410 0.206316
v 0.434866 2.575186 0.206316
v 0.348571 1.129410 0.338400
v 0.348571 2.575186 0.338400
v 0.224064 1.129410 0.435308
v 0.224064 2.575186 0.435308
v 0.074837 1.129410 0.486537
v 0.074837 2.575186 0.486537
v -0.082939 1.129410 0.486537
v -0.082939 2.575186 0.486537
v -0.232165 1.129410 0.435308
v -0.232165 2.575186 0.435308
v -0.356672 1.129410 0.338400
v -0.356672 2.575186 0.338400
v -0.442968 1.129410 0.206315
v -0.442968 2.575186 0.206315
v -0.481699 1.129410 0.053368
v -0.481699 2.575186 0.053368
v -0.468670 1.129410 -0.103869
v -0.468670 2.575186 -0.103869
v -0.405292 1.129410 -0.248356
v -0.405292 2.575186 -0.248356
v -0.298433 1.129410 -0.364435
v -0.298433 2.575186 -0.364435
v -0.159674 1.129410 -0.439528
v -0.159674 2.575186 -0.439528
vn 0.1646 0.0000 -0.9864
vn 0.4759 0.0000 -0.8795
vn 0.7357 0.0000 -0.6773
vn 0.9158 0.0000 -0.4017
vn 0.9966 0.0000 -0.0826
vn 0.9694 0.0000 0.2455
vn 0.8372 0.0000 0.5469
vn 0.6142 0.0000 0.7891
vn 0.3247 0.0000 0.9458
vn 0.0000 0.0000 1.0000
vn -0.3247 0.0000 0.9458
vn -0.6142 0.0000 0.7891
vn -0.8372 0.0000 0.5469
vn -0.9694 0.0000 0.2455
vn -0.9966 0.0000 -0.0826
vn -0.9158 0.0000 -0.4017
vn -0.7357 0.0000 -0.6773
vn 0.0000 1.0000 -0.0000
vn -0.4759 0.0000 -0.8795
vn -0.1646 0.0000 -0.9864
vn 0.0000 -1.0000 -0.0000
usemtl None
s off
f 25//19 26//19 28//19 27//19
f 27//20 28//20 30//20 29//20
f 29//21 30//21 32//21 31//21
f 31//22 32//22 34//22 33//22
f 33//23 34//23 36//23 35//23
f 35//24 36//24 38//24 37//24
f 37//25 38//25 40//25 39//25
f 39//26 40//26 42//26 41//26
f 41//27 42//27 44//27 43//27
f 43//28 44//28 46//28 45//28
f 45//29 46//29 48//29 47//29
f 47//30 48//30 50//30 49//30
f 49//31 50//31 52//31 51//31
f 51//32 52//32 54//32 53//32
f 53//33 54//33 56//33 55//33
f 55//34 56//34 58//34 57//34
f 57//35 58//35 60//35 59//35
f 28//36 26//36 62//36 60//36 58//36 56//36 54//36 52//36 50//36 48//36 46//36 44//36 42//36 40//36 38//36 36//36 34//36 32//36 30//36
f 59//37 60//37 62//37 61//37
f 61//38 62//38 26//38 25//38
f 25//39 27//39 29//39 31//39 33//39 35//39 37//39 39//39 41//39 43//39 45//39 47//39 49//39 51//39 53//39 55//39 57//39 59//39 61//39
